<?xml version="1.0" encoding="utf-8"?><svg xml:space="preserve" viewBox="0 0 100 100" y="0" x="0" xmlns="http://www.w3.org/2000/svg" id="圖層_1" version="1.1" width="200px" height="200px" xmlns:xlink="http://www.w3.org/1999/xlink" style="width:100%;height:100%;background-size:initial;background-repeat-y:initial;background-repeat-x:initial;background-position-y:initial;background-position-x:initial;background-origin:initial;background-image:initial;background-color:rgb(241, 242, 243);background-clip:initial;background-attachment:initial;animation-play-state:paused" ><g class="ldl-scale" style="transform-origin:50% 50%;transform:rotate(0deg) scale(0.8, 0.8);animation-play-state:paused" ><g style="animation-play-state:paused" ><path stroke-linejoin="round" stroke-linecap="round" fill="#f47e60" stroke-miterlimit="10" stroke-width="3" stroke="#333" d="M92.5 69.4c0 6.6-19 12-42.5 12S7.5 76 7.5 69.4s19-16.7 42.5-16.7 42.5 10.1 42.5 16.7z" style="stroke:rgb(248, 178, 106);fill:rgb(152, 26, 35);animation-play-state:paused" ></path>
<path stroke-linejoin="round" stroke-linecap="round" fill="#f47e60" stroke-miterlimit="10" stroke-width="3" stroke="#333" d="M78.3 59.1c0 8.4-56.7 8.4-56.7 0l6-29.8c0-14.1 44.7-14.1 44.7 0l6 29.8z" style="stroke:rgb(248, 178, 106);fill:rgb(152, 26, 35);animation-play-state:paused" ></path>
<path stroke-miterlimit="10" stroke-width="3" stroke="#333" fill="#c33737" stroke-linejoin="round" stroke-linecap="round" d="M50 55.4c-9.6 0-18.8-.5-27.3-1.4l-1 5.1c0 8.4 56.7 8.4 56.7 0l-1-5.1c-8.6.9-17.8 1.4-27.4 1.4z" style="stroke:rgb(248, 178, 106);fill:rgb(244, 126, 96);animation-play-state:paused" ></path></g>
<g style="animation-play-state:paused" ><path d="M55.7 76.1l-2.2-4.9-4.6 2.8 5.6-16.1 5.4 1.6z" stroke-miterlimit="10" stroke-width="3" stroke="#333" stroke-linejoin="round" stroke-linecap="round" fill="#e15b64" style="stroke:rgb(248, 178, 106);fill:rgb(225, 91, 100);animation-play-state:paused" ></path>
<path d="M61.7 76.1l2.2-4.9 4.6 2.8-5.7-16.1-5.4 1.6z" stroke-miterlimit="10" stroke-width="3" stroke="#333" stroke-linejoin="round" stroke-linecap="round" fill="#e15b64" style="stroke:rgb(248, 178, 106);fill:rgb(225, 91, 100);animation-play-state:paused" ></path>
<path stroke-miterlimit="10" stroke-width="3" stroke="#333" stroke-linejoin="round" stroke-linecap="round" fill="#e15b64" d="M47.8 54.3v8.8c0 2 2.2 3.3 4 2.4l4.8-2.9v-7.7L51.8 52c-1.8-1-4 .3-4 2.3z" style="stroke:rgb(248, 178, 106);fill:rgb(225, 91, 100);animation-play-state:paused" ></path>
<path stroke-miterlimit="10" stroke-width="3" stroke="#333" stroke-linejoin="round" stroke-linecap="round" fill="#e15b64" d="M65.6 51.9l-4.8 2.9v7.7l4.8 2.9c1.8.9 4-.4 4-2.4v-8.8c-.1-1.9-2.2-3.2-4-2.3z" style="stroke:rgb(248, 178, 106);fill:rgb(225, 91, 100);animation-play-state:paused" ></path>
<path d="M56.6 54.9h4.2v7.7h-4.2z" stroke-miterlimit="10" stroke-width="3" stroke="#333" stroke-linejoin="round" stroke-linecap="round" fill="#e15b64" style="stroke:rgb(248, 178, 106);fill:rgb(225, 91, 100);animation-play-state:paused" ></path></g>
<metadata xmlns:d="https://loading.io/stock/" style="animation-play-state:paused" ><d:name style="animation-play-state:paused" >hats</d:name>


<d:tags style="animation-play-state:paused" >hats,round crown,cloche hats,dome hat,sun hat,bowler hat</d:tags>


<d:license style="animation-play-state:paused" >by</d:license>


<d:slug style="animation-play-state:paused" >a8m2pr</d:slug></metadata></g><!-- generated by https://loading.io/ --></svg>