<?xml version="1.0" encoding="utf-8"?><svg xml:space="preserve" viewBox="0 0 100 100" y="0" x="0" xmlns="http://www.w3.org/2000/svg" id="圖層_1" version="1.1" width="200px" height="200px" xmlns:xlink="http://www.w3.org/1999/xlink" style="width:100%;height:100%;background-size:initial;background-repeat-y:initial;background-repeat-x:initial;background-position-y:initial;background-position-x:initial;background-origin:initial;background-image:initial;background-color:rgb(241, 242, 243);background-clip:initial;background-attachment:initial;animation-play-state:paused" ><g class="ldl-scale" style="transform-origin:50% 50%;transform:rotate(0deg) scale(0.8, 0.8);animation-play-state:paused" ><path stroke-miterlimit="10" stroke-width="3" stroke="#333" fill="#c33737" d="M39.3 26.4c0 5.9 4.8 10.7 10.7 10.7s10.7-4.8 10.7-10.7v-3c-6.8-.9-14.5-.9-21.3 0v3z" style="stroke:rgb(244, 126, 96);fill:rgb(225, 91, 100);animation-play-state:paused" ></path>
<g style="animation-play-state:paused" ><path d="M49.8 19.2L29.3 36.8" stroke-miterlimit="10" stroke-width="3" stroke="#333" fill="none" stroke-linejoin="round" stroke-linecap="round" style="stroke:rgb(244, 126, 96);animation-play-state:paused" ></path>
<path d="M49.8 19.2l20.7 17.6" stroke-miterlimit="10" stroke-width="3" stroke="#333" fill="none" stroke-linejoin="round" stroke-linecap="round" style="stroke:rgb(244, 126, 96);animation-play-state:paused" ></path>
<path stroke-miterlimit="10" stroke-width="3" stroke="#333" fill="none" stroke-linejoin="round" stroke-linecap="round" d="M54.5 9.7c0-2.6-2.1-4.7-4.7-4.7s-4.7 2.1-4.7 4.7 2.1 4.7 4.7 4.7v4.8" style="stroke:rgb(244, 126, 96);animation-play-state:paused" ></path></g>
<path stroke-miterlimit="10" stroke-width="3" stroke="#333" fill="#e15b64" d="M70.2 69.7c-.9-2.6-2.1-5.3-3.6-8.2-3.9-7.6-3.1-14.3-.9-20.3l3.4 11.3 11.3-3.4-4.1-13.3c-3.7-16-18.1-14.2-18.9-14.3v4.9c0 4.1-3.4 7.5-7.5 7.5s-7.5-3.4-7.5-7.5v-4.9c-.8.1-15.2-1.6-18.9 14.3l-4.1 13.3 11.3 3.4 3.4-11.3c2.2 6 3 12.7-.9 20.3-1.5 2.9-2.6 5.6-3.6 8.2-.6 1.6-1.1 3.2-1.5 4.8-1.3 5.2-1.3 10 0 14.6.6 2 1.3 3.9 2.4 5.9h38.6c1-2 1.8-3.9 2.4-5.9 1.3-4.7 1.3-9.5 0-14.6-.2-1.6-.7-3.2-1.3-4.8z" style="stroke:rgb(244, 126, 96);fill:rgb(152, 26, 35);animation-play-state:paused" ></path>
<metadata xmlns:d="https://loading.io/stock/" style="animation-play-state:paused" ><d:name style="animation-play-state:paused" >jumper dresses</d:name>


<d:tags style="animation-play-state:paused" >jumper dresses,shift dresses,jacket,blouse,pinny,clothing</d:tags>


<d:license style="animation-play-state:paused" >by</d:license>


<d:slug style="animation-play-state:paused" >bs6mkn</d:slug></metadata></g><!-- generated by https://loading.io/ --></svg>